<svg xmlns="http://www.w3.org/2000/svg" viewBox="0 0 600 800" width="600" height="800">
  <defs>
    <!-- Cream background -->
    <linearGradient id="bg" x1="0" y1="0" x2="0" y2="1">
      <stop offset="0%" stop-color="#f5f0e8"/>
      <stop offset="100%" stop-color="#e8dece"/>
    </linearGradient>
    <!-- Rug cream base -->
    <linearGradient id="rug-bg" x1="0" y1="0" x2="0" y2="1">
      <stop offset="0%" stop-color="#f8f4ec"/>
      <stop offset="50%" stop-color="#f2ecd8"/>
      <stop offset="100%" stop-color="#ede4cc"/>
    </linearGradient>
    <!-- Warm shadow -->
    <radialGradient id="rug-shadow" cx="50%" cy="50%" r="70%">
      <stop offset="0%" stop-color="#e8dece"/>
      <stop offset="100%" stop-color="#c4aa88" stop-opacity="0.4"/>
    </radialGradient>
    <!-- Zellige border (terracotta) -->
    <pattern id="zellige" x="0" y="0" width="28" height="28" patternUnits="userSpaceOnUse">
      <rect width="28" height="28" fill="#c1603a"/>
      <polygon points="14,3 25,14 14,25 3,14" fill="none" stroke="#d4a843" stroke-width="1.5"/>
      <polygon points="14,8 20,14 14,20 8,14" fill="#f5c842" opacity="0.4"/>
      <circle cx="14" cy="14" r="2" fill="#d4a843"/>
    </pattern>
    <!-- Shadow filter -->
    <filter id="shadow">
      <feDropShadow dx="0" dy="6" stdDeviation="12" flood-color="#00000035"/>
    </filter>
    <filter id="softshadow">
      <feDropShadow dx="2" dy="3" stdDeviation="5" flood-color="#00000025"/>
    </filter>
    <!-- Ambient light gradient on rug -->
    <radialGradient id="rug-light" cx="40%" cy="35%" r="65%">
      <stop offset="0%" stop-color="#ffffff" stop-opacity="0.15"/>
      <stop offset="100%" stop-color="#000000" stop-opacity="0"/>
    </radialGradient>
  </defs>

  <!-- Background -->
  <rect width="600" height="800" fill="url(#bg)"/>

  <!-- Zellige border frame -->
  <rect x="0" y="0" width="600" height="800" fill="url(#zellige)"/>
  <rect x="28" y="28" width="544" height="744" fill="url(#bg)"/>

  <!-- Gold border lines -->
  <rect x="28" y="28" width="544" height="744" fill="none" stroke="#d4a843" stroke-width="2.5"/>
  <rect x="36" y="36" width="528" height="728" fill="none" stroke="#d4a843" stroke-width="0.8" stroke-dasharray="8,5"/>

  <!-- Title -->
  <g transform="translate(300,65)" fill="#d4a843">
    <polygon points="0,-12 3,-5 11,-5 5,1 7,9 0,5 -7,9 -5,1 -11,-5 -3,-5"/>
  </g>
  <text x="300" y="115" font-family="Georgia, serif" font-size="13" fill="#c1603a" text-anchor="middle" letter-spacing="3" opacity="0.85">TAPIS BERBÈRE</text>
  <line x1="120" y1="120" x2="220" y2="120" stroke="#d4a843" stroke-width="1"/>
  <line x1="380" y1="120" x2="480" y2="120" stroke="#d4a843" stroke-width="1"/>

  <!-- ===== RUG BODY (top-down view) ===== -->
  <!-- Rug shadow/depth -->
  <rect x="65" y="140" width="470" height="550" rx="8" fill="#00000020"/>
  <!-- Main rug body -->
  <rect x="60" y="135" width="480" height="545" rx="6" fill="url(#rug-bg)" filter="url(#shadow)"/>
  <!-- Subtle rug texture gradient -->
  <rect x="60" y="135" width="480" height="545" rx="6" fill="url(#rug-light)"/>

  <!-- ===== FRINGE EDGES ===== -->
  <!-- Top fringe -->
  <g stroke="#d4c8a0" stroke-width="2" opacity="0.9">
    <line x1="70" y1="135" x2="68" y2="112"/>
    <line x1="80" y1="135" x2="78" y2="110"/>
    <line x1="90" y1="135" x2="88" y2="112"/>
    <line x1="100" y1="135" x2="98" y2="108"/>
    <line x1="110" y1="135" x2="108" y2="111"/>
    <line x1="120" y1="135" x2="118" y2="109"/>
    <line x1="130" y1="135" x2="128" y2="112"/>
    <line x1="140" y1="135" x2="138" y2="108"/>
    <line x1="150" y1="135" x2="148" y2="111"/>
    <line x1="160" y1="135" x2="158" y2="109"/>
    <line x1="170" y1="135" x2="168" y2="112"/>
    <line x1="180" y1="135" x2="178" y2="108"/>
    <line x1="190" y1="135" x2="188" y2="111"/>
    <line x1="200" y1="135" x2="198" y2="109"/>
    <line x1="210" y1="135" x2="208" y2="112"/>
    <line x1="220" y1="135" x2="218" y2="108"/>
    <line x1="230" y1="135" x2="228" y2="111"/>
    <line x1="240" y1="135" x2="238" y2="109"/>
    <line x1="250" y1="135" x2="248" y2="112"/>
    <line x1="260" y1="135" x2="258" y2="108"/>
    <line x1="270" y1="135" x2="268" y2="111"/>
    <line x1="280" y1="135" x2="278" y2="109"/>
    <line x1="290" y1="135" x2="288" y2="112"/>
    <line x1="300" y1="135" x2="298" y2="108"/>
    <line x1="310" y1="135" x2="308" y2="111"/>
    <line x1="320" y1="135" x2="318" y2="109"/>
    <line x1="330" y1="135" x2="328" y2="112"/>
    <line x1="340" y1="135" x2="338" y2="108"/>
    <line x1="350" y1="135" x2="348" y2="111"/>
    <line x1="360" y1="135" x2="358" y2="109"/>
    <line x1="370" y1="135" x2="368" y2="112"/>
    <line x1="380" y1="135" x2="378" y2="108"/>
    <line x1="390" y1="135" x2="388" y2="111"/>
    <line x1="400" y1="135" x2="398" y2="109"/>
    <line x1="410" y1="135" x2="408" y2="112"/>
    <line x1="420" y1="135" x2="418" y2="108"/>
    <line x1="430" y1="135" x2="428" y2="111"/>
    <line x1="440" y1="135" x2="438" y2="109"/>
    <line x1="450" y1="135" x2="448" y2="112"/>
    <line x1="460" y1="135" x2="458" y2="108"/>
    <line x1="470" y1="135" x2="468" y2="111"/>
    <line x1="480" y1="135" x2="478" y2="109"/>
    <line x1="490" y1="135" x2="488" y2="112"/>
    <line x1="500" y1="135" x2="498" y2="108"/>
    <line x1="510" y1="135" x2="508" y2="111"/>
    <line x1="520" y1="135" x2="518" y2="109"/>
    <line x1="530" y1="135" x2="528" y2="112"/>
  </g>
  <!-- Bottom fringe -->
  <g stroke="#d4c8a0" stroke-width="2" opacity="0.9">
    <line x1="70" y1="680" x2="68" y2="703"/>
    <line x1="80" y1="680" x2="78" y2="706"/>
    <line x1="90" y1="680" x2="88" y2="703"/>
    <line x1="100" y1="680" x2="98" y2="707"/>
    <line x1="110" y1="680" x2="108" y2="704"/>
    <line x1="120" y1="680" x2="118" y2="706"/>
    <line x1="130" y1="680" x2="128" y2="703"/>
    <line x1="140" y1="680" x2="138" y2="707"/>
    <line x1="150" y1="680" x2="148" y2="704"/>
    <line x1="160" y1="680" x2="158" y2="706"/>
    <line x1="170" y1="680" x2="168" y2="703"/>
    <line x1="180" y1="680" x2="178" y2="707"/>
    <line x1="190" y1="680" x2="188" y2="704"/>
    <line x1="200" y1="680" x2="198" y2="706"/>
    <line x1="210" y1="680" x2="208" y2="703"/>
    <line x1="220" y1="680" x2="218" y2="707"/>
    <line x1="230" y1="680" x2="228" y2="704"/>
    <line x1="240" y1="680" x2="238" y2="706"/>
    <line x1="250" y1="680" x2="248" y2="703"/>
    <line x1="260" y1="680" x2="258" y2="707"/>
    <line x1="270" y1="680" x2="268" y2="704"/>
    <line x1="280" y1="680" x2="278" y2="706"/>
    <line x1="290" y1="680" x2="288" y2="703"/>
    <line x1="300" y1="680" x2="298" y2="707"/>
    <line x1="310" y1="680" x2="308" y2="704"/>
    <line x1="320" y1="680" x2="318" y2="706"/>
    <line x1="330" y1="680" x2="328" y2="703"/>
    <line x1="340" y1="680" x2="338" y2="707"/>
    <line x1="350" y1="680" x2="348" y2="704"/>
    <line x1="360" y1="680" x2="358" y2="706"/>
    <line x1="370" y1="680" x2="368" y2="703"/>
    <line x1="380" y1="680" x2="378" y2="707"/>
    <line x1="390" y1="680" x2="388" y2="704"/>
    <line x1="400" y1="680" x2="398" y2="706"/>
    <line x1="410" y1="680" x2="408" y2="703"/>
    <line x1="420" y1="680" x2="418" y2="707"/>
    <line x1="430" y1="680" x2="428" y2="704"/>
    <line x1="440" y1="680" x2="438" y2="706"/>
    <line x1="450" y1="680" x2="448" y2="703"/>
    <line x1="460" y1="680" x2="458" y2="707"/>
    <line x1="470" y1="680" x2="468" y2="704"/>
    <line x1="480" y1="680" x2="478" y2="706"/>
    <line x1="490" y1="680" x2="488" y2="703"/>
    <line x1="500" y1="680" x2="498" y2="707"/>
    <line x1="510" y1="680" x2="508" y2="704"/>
    <line x1="520" y1="680" x2="518" y2="706"/>
    <line x1="530" y1="680" x2="528" y2="703"/>
  </g>

  <!-- ===== OUTER BORDER BAND of the rug ===== -->
  <rect x="60" y="135" width="480" height="545" fill="none" stroke="#2a2020" stroke-width="10"/>
  <!-- Inner border band -->
  <rect x="80" y="155" width="440" height="505" fill="none" stroke="#2a2020" stroke-width="3"/>
  <!-- Second inner band with cream gap -->
  <rect x="88" y="163" width="424" height="489" fill="#f5f0e8" stroke="#1a1a1a" stroke-width="2"/>

  <!-- ===== BERBER GEOMETRIC PATTERNS ON RUG ===== -->

  <!-- ===== TOP ROW: zigzag border band ===== -->
  <rect x="88" y="163" width="424" height="35" fill="#f0ead8"/>
  <polyline points="88,178 102,165 116,178 130,165 144,178 158,165 172,178 186,165 200,178 214,165 228,178 242,165 256,178 270,165 284,178 298,165 312,178 326,165 340,178 354,165 368,178 382,165 396,178 410,165 424,178 438,165 452,178 466,165 480,178 494,165 508,178 512,178" fill="none" stroke="#1a1a1a" stroke-width="2"/>

  <!-- ===== BOTTOM ROW: zigzag border band ===== -->
  <rect x="88" y="617" width="424" height="35" fill="#f0ead8"/>
  <polyline points="88,632 102,619 116,632 130,619 144,632 158,619 172,632 186,619 200,632 214,619 228,632 242,619 256,632 270,619 284,632 298,619 312,632 326,619 340,632 354,619 368,632 382,619 396,632 410,619 424,632 438,619 452,632 466,619 480,632 494,619 508,632 512,632" fill="none" stroke="#1a1a1a" stroke-width="2"/>

  <!-- ===== MAIN FIELD: Large diamond/lozenge patterns ===== -->
  <!-- Central field background -->
  <rect x="88" y="198" width="424" height="419" fill="#f5f0e8"/>

  <!-- Horizontal dividing lines of rug -->
  <line x1="88" y1="338" x2="512" y2="338" stroke="#1a1a1a" stroke-width="1.5" opacity="0.5"/>
  <line x1="88" y1="478" x2="512" y2="478" stroke="#1a1a1a" stroke-width="1.5" opacity="0.5"/>

  <!-- ===== ROW 1 of motifs ===== -->
  <!-- Large central diamond (top section) -->
  <polygon points="300,205 385,268 300,331 215,268" fill="none" stroke="#1a1a1a" stroke-width="2.5"/>
  <polygon points="300,218 368,268 300,318 232,268" fill="none" stroke="#1a1a1a" stroke-width="1.5"/>
  <!-- Inner diamond fill -->
  <polygon points="300,232 355,268 300,304 245,268" fill="#1a1a1a" opacity="0.08"/>
  <!-- Center cross motif -->
  <line x1="300" y1="240" x2="300" y2="296"/>
  <line x1="272" y1="268" x2="328" y2="268"/>
  <!-- 4 small corner diamonds -->
  <g fill="#1a1a1a" opacity="0.75">
    <polygon points="300,240 306,248 300,256 294,248"/>
    <polygon points="272,268 280,276 272,284 264,276"/>
    <polygon points="328,268 336,276 328,284 320,276"/>
    <polygon points="300,281 306,288 300,296 294,288"/>
  </g>

  <!-- Left motif top row -->
  <g transform="translate(142,268)">
    <polygon points="0,-45 40,0 0,45 -40,0" fill="none" stroke="#1a1a1a" stroke-width="2"/>
    <polygon points="0,-30 25,0 0,30 -25,0" fill="none" stroke="#1a1a1a" stroke-width="1.2"/>
    <circle cx="0" cy="0" r="8" fill="#1a1a1a" opacity="0.7"/>
    <!-- Cross arms -->
    <line x1="0" y1="-20" x2="0" y2="-10" stroke="#1a1a1a" stroke-width="2"/>
    <line x1="-20" y1="0" x2="-10" y2="0" stroke="#1a1a1a" stroke-width="2"/>
    <line x1="10" y1="0" x2="20" y2="0" stroke="#1a1a1a" stroke-width="2"/>
    <line x1="0" y1="10" x2="0" y2="20" stroke="#1a1a1a" stroke-width="2"/>
  </g>
  <!-- Right motif top row -->
  <g transform="translate(458,268)">
    <polygon points="0,-45 40,0 0,45 -40,0" fill="none" stroke="#1a1a1a" stroke-width="2"/>
    <polygon points="0,-30 25,0 0,30 -25,0" fill="none" stroke="#1a1a1a" stroke-width="1.2"/>
    <circle cx="0" cy="0" r="8" fill="#1a1a1a" opacity="0.7"/>
    <line x1="0" y1="-20" x2="0" y2="-10" stroke="#1a1a1a" stroke-width="2"/>
    <line x1="-20" y1="0" x2="-10" y2="0" stroke="#1a1a1a" stroke-width="2"/>
    <line x1="10" y1="0" x2="20" y2="0" stroke="#1a1a1a" stroke-width="2"/>
    <line x1="0" y1="10" x2="0" y2="20" stroke="#1a1a1a" stroke-width="2"/>
  </g>

  <!-- ===== ROW 2 of motifs (middle section) ===== -->
  <!-- Central large lozenge - middle -->
  <polygon points="300,345 400,408 300,471 200,408" fill="none" stroke="#1a1a1a" stroke-width="2.5"/>
  <polygon points="300,360 382,408 300,456 218,408" fill="none" stroke="#1a1a1a" stroke-width="1.5"/>
  <!-- Concentric inner -->
  <polygon points="300,375 365,408 300,441 235,408" fill="none" stroke="#1a1a1a" stroke-width="1"/>
  <!-- Center medallion -->
  <circle cx="300" cy="408" r="18" fill="none" stroke="#1a1a1a" stroke-width="2"/>
  <circle cx="300" cy="408" r="10" fill="#1a1a1a" opacity="0.7"/>
  <circle cx="300" cy="408" r="4" fill="#f5f0e8"/>
  <!-- Radiating lines from center lozenge -->
  <g stroke="#1a1a1a" stroke-width="1.5" opacity="0.6">
    <line x1="300" y1="348" x2="300" y2="370"/>
    <line x1="300" y1="446" x2="300" y2="468"/>
    <line x1="205" y1="408" x2="225" y2="408"/>
    <line x1="375" y1="408" x2="395" y2="408"/>
  </g>
  <!-- Small hourglass symbols on sides -->
  <g stroke="#1a1a1a" stroke-width="2" fill="none">
    <polygon points="118,388 138,408 118,428 98,408"/>
    <line x1="98" y1="408" x2="118" y2="408"/>
    <polygon points="482,388 502,408 482,428 462,408"/>
    <line x1="462" y1="408" x2="482" y2="408"/>
  </g>
  <!-- 4 corner tick marks flanking central lozenge -->
  <g stroke="#1a1a1a" stroke-width="1.5">
    <line x1="185" y1="358" x2="195" y2="368"/>
    <line x1="195" y1="358" x2="185" y2="368"/>
    <line x1="405" y1="358" x2="415" y2="368"/>
    <line x1="415" y1="358" x2="405" y2="368"/>
    <line x1="185" y1="448" x2="195" y2="458"/>
    <line x1="195" y1="448" x2="185" y2="458"/>
    <line x1="405" y1="448" x2="415" y2="458"/>
    <line x1="415" y1="448" x2="405" y2="458"/>
  </g>

  <!-- ===== ROW 3 (bottom section) ===== -->
  <!-- Central diamond bottom -->
  <polygon points="300,485 385,548 300,611 215,548" fill="none" stroke="#1a1a1a" stroke-width="2.5"/>
  <polygon points="300,498 368,548 300,598 232,548" fill="none" stroke="#1a1a1a" stroke-width="1.5"/>
  <polygon points="300,512 352,548 300,584 248,548" fill="#1a1a1a" opacity="0.07"/>
  <!-- Cross in bottom diamond -->
  <line x1="300" y1="510" x2="300" y2="586" stroke="#1a1a1a" stroke-width="1.5"/>
  <line x1="268" y1="548" x2="332" y2="548" stroke="#1a1a1a" stroke-width="1.5"/>
  <circle cx="300" cy="548" r="7" fill="#1a1a1a" opacity="0.7"/>

  <!-- Left motif bottom row -->
  <g transform="translate(142,548)">
    <polygon points="0,-40 35,0 0,40 -35,0" fill="none" stroke="#1a1a1a" stroke-width="2"/>
    <polygon points="0,-25 20,0 0,25 -20,0" fill="none" stroke="#1a1a1a" stroke-width="1.2"/>
    <rect x="-8" y="-8" width="16" height="16" fill="#1a1a1a" opacity="0.6" transform="rotate(45)"/>
    <rect x="-4" y="-4" width="8" height="8" fill="#f5f0e8"/>
  </g>
  <!-- Right motif bottom row -->
  <g transform="translate(458,548)">
    <polygon points="0,-40 35,0 0,40 -35,0" fill="none" stroke="#1a1a1a" stroke-width="2"/>
    <polygon points="0,-25 20,0 0,25 -20,0" fill="none" stroke="#1a1a1a" stroke-width="1.2"/>
    <rect x="-8" y="-8" width="16" height="16" fill="#1a1a1a" opacity="0.6" transform="rotate(45)"/>
    <rect x="-4" y="-4" width="8" height="8" fill="#f5f0e8"/>
  </g>

  <!-- Side column small diamonds (repeated pattern along vertical edges) -->
  <g fill="none" stroke="#1a1a1a" stroke-width="1.5" opacity="0.5">
    <!-- Left column -->
    <polygon points="95,230 103,238 95,246 87,238"/>
    <polygon points="95,260 103,268 95,276 87,268"/>
    <polygon points="95,290 103,298 95,306 87,298"/>
    <!-- Right column -->
    <polygon points="505,230 513,238 505,246 497,238"/>
    <polygon points="505,260 513,268 505,276 497,268"/>
    <polygon points="505,290 513,298 505,306 497,298"/>
    <!-- Left bottom -->
    <polygon points="95,480 103,488 95,496 87,488"/>
    <polygon points="95,510 103,518 95,526 87,518"/>
    <polygon points="95,540 103,548 95,556 87,548"/>
    <!-- Right bottom -->
    <polygon points="505,480 513,488 505,496 497,488"/>
    <polygon points="505,510 513,518 505,526 497,518"/>
    <polygon points="505,540 513,548 505,556 497,548"/>
  </g>

  <!-- Light ambient on rug -->
  <rect x="60" y="135" width="480" height="545" rx="6" fill="url(#rug-light)" opacity="0.8"/>

  <!-- ===== LABEL ===== -->
  <rect x="36" y="718" width="528" height="54" fill="#2b2fa0" opacity="0.9"/>
  <line x1="50" y1="726" x2="550" y2="726" stroke="#d4a843" stroke-width="1.2"/>
  <line x1="50" y1="762" x2="550" y2="762" stroke="#d4a843" stroke-width="1.2"/>
  <g fill="#d4a843">
    <polygon points="300,722 306,727 300,732 294,727"/>
    <polygon points="160,722 166,727 160,732 154,727"/>
    <polygon points="440,722 446,727 440,732 434,727"/>
  </g>
  <text x="300" y="745" font-family="Georgia, serif" font-size="18" font-weight="bold" fill="#d4a843" text-anchor="middle" letter-spacing="4">AZILAL · BENI OUARAIN</text>
  <text x="300" y="758" font-family="Georgia, serif" font-size="10" fill="#f5f0e8" text-anchor="middle" letter-spacing="3" opacity="0.8">TAPIS BERBÈRE · LAINE NATURELLE</text>
</svg>
